<?xml version="1.0" standalone="no"?>
<!DOCTYPE svg PUBLIC "-//W3C//DTD SVG 20010904//EN"
 "http://www.w3.org/TR/2001/REC-SVG-20010904/DTD/svg10.dtd">
<svg version="1.0" xmlns="http://www.w3.org/2000/svg"
 width="300.000000pt" height="300.000000pt" viewBox="0 0 300.000000 300.000000"
 preserveAspectRatio="xMidYMid meet">
<metadata>
Created by potrace 1.10, written by Peter Selinger 2001-2011
</metadata>
<g transform="translate(0.000000,300.000000) scale(0.100000,-0.100000)"
fill="#000000" stroke="none">
<path d="M1514 2535 c3 -55 6 -117 6 -137 0 -37 1 -38 35 -38 36 0 41 -5 26
-29 -5 -8 -20 -12 -37 -9 -28 4 -29 2 -29 -39 0 -27 5 -43 12 -43 9 0 11 -18
8 -62 -3 -35 -7 -125 -10 -200 -4 -116 -2 -143 12 -173 15 -32 15 -37 3 -45
-23 -15 -66 -12 -80 5 -10 12 -9 20 5 42 16 24 17 46 11 230 -3 112 -3 203 2
203 4 0 6 18 4 40 -4 36 -7 40 -32 40 -19 0 -29 6 -33 20 -4 17 0 20 29 20 33
0 34 1 34 38 0 22 3 81 6 133 5 71 4 91 -5 83 -6 -6 -16 -39 -21 -75 -21 -132
-9 -119 -113 -121 l-92 -2 110 -6 110 -6 -97 -2 c-110 -2 -107 0 -77 -77 18
-46 18 -41 2 38 -5 27 -5 27 46 27 50 0 50 0 45 -29 -5 -23 0 -35 25 -60 19
-19 30 -39 27 -49 -2 -9 -7 -31 -11 -48 -5 -24 -20 -40 -69 -71 -48 -31 -71
-54 -94 -95 -35 -61 -40 -77 -17 -58 8 7 15 9 15 4 0 -10 51 76 53 90 3 13
103 66 124 66 10 -1 -3 -12 -28 -25 -62 -32 -115 -95 -130 -156 -15 -58 -30
-65 -23 -11 l5 37 -23 -27 c-13 -16 -28 -28 -33 -28 -5 0 -4 5 2 11 9 9 3 18
-23 35 -37 25 -64 31 -64 13 0 -5 -4 -8 -9 -4 -6 3 -11 -16 -13 -42 -2 -31 -7
-47 -15 -46 -7 2 -10 -4 -7 -12 4 -8 1 -15 -5 -15 -6 0 -11 3 -11 8 0 4 -24 7
-53 7 -102 1 -187 15 -187 32 0 11 -7 13 -31 8 -24 -6 -30 -4 -27 6 3 9 15 13
31 11 15 -2 27 1 27 7 0 6 15 11 33 11 24 0 28 -3 17 -10 -11 -7 -12 -10 -2
-10 7 0 20 7 28 15 20 19 75 128 58 114 -7 -5 -21 -30 -31 -55 l-18 -44 -91 0
-92 0 -8 -37 -8 -38 -6 40 c-4 22 -8 30 -9 18 -1 -27 -16 -30 -77 -18 -70 13
-154 18 -154 7 0 -26 555 -114 610 -97 29 9 50 -12 50 -49 0 -27 -7 -37 -42
-60 -40 -26 -44 -27 -92 -15 -90 21 -368 119 -455 160 -46 21 -86 38 -88 36
-2 -3 15 -20 37 -39 l40 -36 -27 -7 c-42 -10 -14 -20 107 -40 58 -9 125 -20
150 -25 58 -12 268 -75 277 -83 3 -4 -21 -7 -55 -7 -34 0 -62 3 -62 8 0 4 -26
8 -58 9 -69 2 -226 41 -313 78 -35 14 -71 29 -79 32 -28 12 19 -33 55 -53 20
-10 33 -24 31 -30 -3 -7 11 -14 37 -18 71 -10 349 -37 395 -38 40 -1 43 -3 40
-27 -4 -35 -44 -43 -51 -9 -4 21 -4 21 -6 2 -1 -17 -6 -20 -25 -17 -14 3 -27
13 -29 22 -4 14 -5 14 -6 -1 -2 -38 -178 -16 -296 37 -65 28 -65 28 -65 16 0
-5 23 -23 50 -40 28 -17 48 -36 45 -41 -4 -6 64 -10 188 -10 l195 0 4 -25 c3
-14 0 -26 -6 -26 -6 -1 -22 -3 -36 -5 -14 -2 -59 -6 -100 -10 -74 -6 -106 1
-235 50 -12 5 -4 -7 20 -31 32 -30 41 -35 47 -23 4 9 7 -2 7 -25 1 -36 5 -42
41 -63 22 -12 40 -27 40 -32 0 -6 7 -10 15 -10 8 0 15 -4 15 -9 0 -11 -190
-19 -197 -8 -9 15 8 28 22 17 8 -7 16 -7 19 -2 10 16 -27 24 -41 9 -20 -20 -5
-50 21 -43 45 11 200 9 204 -3 2 -6 21 -11 42 -11 28 0 46 -7 64 -25 16 -16
36 -25 55 -25 17 0 42 -5 56 -12 20 -9 25 -18 25 -48 0 -28 8 -43 33 -68 18
-18 37 -29 42 -25 4 5 3 -1 -3 -13 -6 -11 -18 -26 -26 -34 -13 -10 -16 -40
-16 -172 0 -123 -3 -159 -12 -156 -9 3 -14 32 -16 87 l-3 83 -68 67 c-71 69
-131 165 -108 174 6 3 2 6 -10 6 -21 1 -20 -2 15 -65 21 -38 63 -91 99 -124
l61 -58 3 -98 c2 -70 0 -99 -9 -102 -9 -3 -11 8 -7 40 4 31 3 38 -4 23 -22
-47 1 -97 32 -66 18 18 25 13 19 -14 -3 -17 1 -27 13 -31 29 -12 38 10 27 63
l-11 48 4 -52 c3 -37 0 -53 -8 -53 -9 0 -11 47 -9 192 l3 193 32 33 c17 17 27
32 21 32 -5 0 -3 4 4 9 8 5 15 39 18 92 3 46 6 85 8 87 2 1 20 -13 41 -32 31
-30 37 -41 32 -64 -3 -16 -1 -34 6 -41 6 -6 7 -11 1 -11 -5 0 -10 -31 -12 -69
-3 -67 -3 -69 37 -115 l41 -47 0 -96 c0 -77 4 -102 19 -127 11 -17 29 -73 41
-124 12 -51 24 -91 27 -88 9 9 -28 200 -41 216 -9 9 -16 58 -20 130 l-7 115
-34 30 c-34 29 -35 33 -36 100 0 39 -3 100 -8 137 -4 37 -3 76 2 85 7 14 5 14
-7 -1 -18 -22 -19 -21 -64 42 -26 37 -29 47 -21 75 12 41 11 43 -3 29 -7 -7
-33 -12 -58 -12 -40 0 -51 5 -84 39 -33 33 -40 48 -44 92 -6 62 14 106 59 133
34 20 40 5 5 -17 -44 -29 -75 -127 -40 -127 13 0 15 8 12 35 -2 19 -1 35 3 35
4 0 11 9 14 20 4 11 10 18 15 15 4 -3 14 3 21 12 11 12 13 49 12 147 l-2 131
29 -35 c25 -28 30 -43 30 -86 0 -34 -5 -56 -15 -64 -8 -7 -15 -24 -15 -39 0
-15 -6 -33 -12 -40 -9 -10 -9 -12 -1 -7 6 3 14 2 18 -4 3 -5 -5 -12 -19 -16
-32 -8 -54 -33 -62 -72 -5 -26 -1 -36 24 -62 37 -37 65 -38 99 -4 21 21 24 32
20 60 -7 43 -2 43 19 -2 16 -34 16 -41 1 -112 l-17 -76 26 -38 c15 -21 30 -38
34 -38 3 0 21 21 39 46 18 25 36 43 38 40 3 -3 0 -13 -8 -22 -12 -15 -11 -19
9 -32 17 -11 22 -24 22 -56 0 -30 5 -45 19 -53 15 -9 20 -27 23 -82 3 -61 8
-75 31 -98 l27 -27 30 29 c28 26 30 34 30 97 0 57 3 69 20 78 15 8 20 21 20
55 0 33 5 47 19 54 10 6 21 7 25 4 3 -3 6 -2 6 3 0 6 -5 15 -11 21 -19 19 -51
-24 -57 -76 -3 -25 -11 -50 -18 -54 -10 -6 -14 -29 -14 -77 0 -58 -3 -72 -22
-90 -12 -11 -25 -20 -29 -20 -19 0 -49 55 -49 89 0 27 3 32 10 21 5 -8 10 -27
10 -42 0 -16 8 -31 19 -37 27 -15 51 16 51 65 0 21 3 76 6 121 7 78 8 82 36
94 16 6 32 18 37 27 7 12 16 4 47 -36 l38 -51 29 40 30 41 -17 78 c-16 78 -16
79 5 117 17 31 20 33 15 11 -9 -38 9 -77 40 -88 32 -13 58 -6 84 23 37 39 17
107 -38 128 -19 8 -23 12 -13 18 9 6 10 11 2 15 -6 4 -11 23 -11 42 0 22 -6
37 -15 40 -11 4 -15 21 -15 58 0 43 5 58 30 86 l29 35 1 -138 c0 -131 1 -139
20 -144 27 -7 75 -123 51 -123 -4 0 -13 -11 -20 -24 -19 -35 -82 -51 -120 -32
-16 9 -31 19 -33 23 -3 5 -3 2 -1 -5 1 -8 3 -23 3 -33 0 -11 5 -17 10 -14 6 4
8 12 4 18 -3 7 0 5 8 -3 49 -57 168 23 168 112 0 27 -4 37 -12 32 -7 -4 -8 -3
-4 5 5 7 -6 25 -28 46 -20 19 -32 36 -27 40 16 9 78 -61 85 -97 12 -64 -28
-145 -83 -168 -17 -7 -49 -10 -71 -8 -40 4 -41 3 -35 -24 5 -22 -1 -39 -31
-79 l-38 -51 -26 31 c-25 32 -26 32 -43 13 -9 -10 -17 -32 -17 -49 0 -16 -8
-37 -19 -47 -13 -12 -20 -36 -23 -87 -4 -48 -11 -76 -24 -90 -15 -17 -19 -45
-25 -167 -25 -500 -30 -490 -62 127 -1 20 -8 38 -19 45 -15 9 -18 25 -18 83 0
62 -3 74 -20 83 -15 8 -20 21 -20 49 0 25 -5 41 -15 45 -8 3 -15 13 -15 23 0
15 -2 15 -13 3 -9 -11 -11 -52 -7 -168 l5 -153 37 -32 36 -32 6 -114 c4 -76
10 -119 20 -130 7 -9 22 -71 31 -138 10 -68 21 -123 25 -123 5 0 16 53 25 117
11 77 24 127 36 145 16 23 19 45 19 134 l0 107 40 34 40 35 0 146 c0 113 3
143 12 134 8 -8 11 -45 9 -113 -2 -76 1 -104 11 -110 10 -7 10 -9 1 -9 -8 0
-13 -13 -13 -29 0 -21 -11 -38 -39 -64 l-38 -35 -5 -111 c-3 -81 -9 -115 -20
-128 -9 -10 -21 -49 -27 -88 -6 -38 -14 -83 -17 -100 -9 -43 10 -19 24 31 7
23 12 53 12 68 0 15 12 48 26 72 23 39 26 55 25 128 -2 93 9 131 37 140 40 13
49 54 43 208 -3 72 3 92 35 113 31 20 37 15 38 -27 1 -18 5 -39 9 -45 5 -7 4
-13 -1 -13 -5 0 -7 -14 -4 -30 5 -34 33 -54 63 -45 26 9 54 53 51 81 -5 34 31
64 76 64 26 0 45 8 64 25 19 18 38 25 67 25 22 0 41 5 43 12 3 7 21 12 44 12
33 -1 34 0 7 3 -33 4 -47 23 -18 23 8 0 15 4 15 8 0 5 18 18 40 31 35 19 40
27 40 58 0 26 4 34 14 30 8 -3 31 10 53 29 23 21 30 33 18 28 -159 -59 -191
-63 -316 -42 -62 10 -70 13 -67 32 3 20 9 21 158 23 233 2 230 2 227 14 -1 6
13 19 31 29 37 20 74 51 69 57 -2 2 -29 -8 -60 -21 -81 -36 -166 -56 -241 -56
-61 0 -66 2 -67 23 -1 22 -1 22 -8 -2 -9 -33 -48 -39 -54 -8 l-4 22 -2 -22
c-2 -46 -50 -20 -51 28 0 3 19 6 43 7 52 1 360 30 405 38 17 4 32 11 32 18 1
6 21 26 46 44 25 19 43 36 41 39 -3 2 -29 -8 -58 -23 -64 -32 -259 -83 -349
-91 -152 -13 -171 -13 -166 -4 3 5 23 12 43 16 21 4 79 20 128 36 50 15 124
33 165 39 129 18 204 32 220 41 11 6 8 8 -12 9 -18 0 -28 5 -28 15 0 8 3 15 8
15 10 0 64 51 59 56 -2 2 -47 -16 -100 -41 -91 -44 -336 -128 -445 -155 -50
-11 -53 -11 -83 14 -17 14 -35 26 -40 26 -14 0 -11 66 4 78 7 6 29 9 48 6 42
-6 366 36 506 67 107 23 133 46 39 35 -28 -3 -80 -9 -115 -13 l-64 -6 5 26 c3
15 1 24 -3 21 -5 -3 -10 -22 -10 -42 l-2 -37 -6 39 -6 39 -95 -2 -95 -1 -23
50 c-22 47 -108 147 -143 166 -13 7 -17 30 -21 107 -3 66 0 97 7 97 8 0 10
-28 7 -88 -3 -72 -1 -90 12 -101 10 -8 16 -9 16 -3 0 6 -4 14 -10 17 -13 8
-13 125 0 145 5 9 5 19 -2 27 -13 16 -48 17 -48 2 0 -5 -5 -7 -10 -4 -6 4 -8
11 -5 16 4 5 1 9 -4 9 -7 0 -11 -53 -11 -157 0 -86 2 -154 5 -151 3 3 6 62 6
132 1 91 4 126 13 123 6 -2 13 -37 16 -84 5 -81 5 -81 46 -115 58 -46 136
-148 131 -170 -4 -14 33 -48 50 -47 16 0 15 2 -2 10 -16 7 -13 8 10 3 17 -3
46 -7 65 -9 18 -1 36 -8 38 -15 3 -9 -4 -10 -27 -5 -24 5 -31 3 -31 -9 0 -9
-6 -16 -12 -17 -7 0 -20 -2 -28 -3 -76 -15 -168 -16 -202 -2 -33 14 -37 20
-40 58 -3 38 -6 43 -29 46 -15 2 -32 -5 -44 -18 -10 -11 -25 -20 -33 -20 -12
0 -12 -3 -2 -15 7 -9 8 -15 2 -15 -5 0 -18 12 -28 28 -13 21 -14 24 -2 14 14
-11 16 -9 14 17 0 16 -5 27 -11 25 -6 -3 -19 12 -30 33 -25 47 -58 77 -107 99
-26 12 -40 25 -44 43 -3 14 -9 37 -13 51 -7 20 -2 32 26 63 27 30 32 41 23 57
-15 29 -14 30 40 30 28 0 50 -3 50 -7 0 -5 -7 -33 -15 -63 -8 -30 -15 -59 -14
-65 0 -10 48 124 49 138 0 4 -44 8 -97 9 l-98 2 110 6 110 6 -87 2 c-102 2
-104 4 -117 111 -5 38 -14 77 -21 87 -9 15 -10 -2 -6 -81z m116 -425 c16 -11
36 -20 45 -20 9 0 13 -4 10 -10 -3 -5 5 -29 19 -52 27 -47 44 -118 28 -118 -5
0 -12 17 -16 39 -9 57 -63 131 -116 158 -25 13 -47 28 -48 34 -5 13 43 -6 78
-31z m-171 -141 l2 -141 -23 7 c-46 13 -78 28 -78 36 0 5 -9 13 -20 19 -16 8
-20 8 -20 -4 0 -10 6 -13 17 -9 10 4 14 2 10 -4 -9 -15 15 -33 62 -47 30 -8
38 -15 32 -25 -15 -23 -92 9 -119 49 -26 39 -24 83 8 157 18 40 88 103 116
103 9 0 12 -35 13 -141z m129 127 c59 -31 102 -96 102 -156 0 -16 5 -30 11
-32 14 -5 -10 -55 -37 -79 -23 -20 -83 -41 -95 -33 -16 9 -10 24 10 24 27 0
81 32 81 48 0 7 5 10 10 7 6 -3 10 1 10 10 0 14 -6 12 -30 -8 -31 -26 -97 -53
-107 -43 -6 6 7 276 14 276 2 0 16 -6 31 -14z m-279 -273 c32 -63 40 -73 41
-50 l0 27 60 -30 c33 -16 73 -30 90 -30 17 0 57 14 90 30 33 17 60 27 61 23 1
-5 0 -18 -1 -30 -1 -13 1 -23 3 -23 3 0 22 36 43 80 33 72 54 98 54 70 0 -19
2 -25 10 -35 26 -32 50 -90 50 -121 0 -26 -8 -44 -32 -69 -18 -18 -46 -50 -63
-71 -16 -21 -45 -46 -62 -57 -26 -15 -33 -25 -33 -51 0 -35 -39 -81 -61 -74
-7 2 1 13 19 27 27 19 32 29 32 61 0 36 4 42 38 59 46 23 67 46 87 94 8 20 22
37 30 37 7 0 17 4 20 10 3 6 -1 7 -9 4 -20 -8 -21 10 -1 26 19 16 19 26 -6 80
l-21 45 -34 -67 c-31 -61 -38 -68 -93 -95 -51 -24 -63 -34 -78 -70 -25 -59
-52 -58 -80 1 -21 43 -21 44 -3 61 21 19 17 40 -7 31 -8 -3 -11 -1 -8 4 3 6 3
10 -2 11 -28 3 -51 7 -68 14 -11 4 0 -5 25 -20 56 -33 56 -33 43 -46 -7 -7
-27 -2 -65 17 -51 25 -58 32 -93 104 -32 66 -39 100 -20 100 3 0 23 -35 44
-77z m-80 -22 l-22 -52 22 -20 c26 -25 27 -33 1 -26 -11 3 -18 1 -14 -4 3 -5
12 -9 20 -9 7 0 24 -21 36 -46 16 -34 36 -56 75 -80 48 -32 53 -38 53 -71 0
-28 7 -43 28 -60 34 -28 14 -30 -22 -2 -18 14 -26 30 -26 53 0 27 -7 37 -45
64 -24 17 -55 49 -69 70 -14 22 -36 49 -50 60 -34 26 -34 67 0 133 32 65 42
57 13 -10z m28 -28 c-10 -23 -27 -31 -27 -13 0 5 5 21 12 35 8 17 14 22 19 14
4 -7 2 -23 -4 -36z m508 5 c4 -17 3 -28 -3 -28 -10 0 -22 32 -22 60 0 22 18
-1 25 -32z m-466 -51 c24 -53 37 -64 89 -80 28 -8 48 -23 64 -47 18 -27 31
-35 53 -35 24 0 34 7 50 37 14 27 29 39 50 43 59 12 66 17 94 73 29 56 29 57
41 32 9 -21 7 -34 -14 -81 -24 -56 -46 -79 -103 -110 -23 -13 -29 -23 -31 -55
-2 -23 -10 -44 -20 -52 -15 -12 -17 -9 -20 28 -5 60 32 121 80 135 35 10 78
40 78 56 0 4 -10 -2 -23 -15 -13 -12 -41 -26 -62 -29 -55 -9 -85 -61 -85 -145
0 -32 -2 -61 -5 -64 -3 -3 -7 -55 -9 -117 -1 -70 -7 -116 -15 -124 -18 -18
-31 9 -31 68 0 28 -3 75 -7 105 -6 50 -5 54 10 42 9 -8 21 -10 28 -6 7 4 0 12
-20 20 -30 13 -31 15 -31 79 0 86 -27 131 -84 141 -23 3 -50 17 -65 33 l-25
26 15 -25 c9 -15 34 -31 61 -40 60 -19 88 -61 88 -130 0 -48 -1 -50 -20 -40
-15 8 -20 21 -20 50 0 37 -4 42 -53 73 -43 28 -57 44 -78 93 -18 42 -23 67
-18 82 5 12 11 22 13 22 3 0 14 -20 25 -43z m-91 -59 c7 -7 12 -19 12 -27 0
-11 -5 -10 -22 5 -12 10 -18 13 -13 5 6 -10 2 -12 -13 -7 -30 10 -47 -24 -26
-50 15 -18 15 -18 6 1 -10 21 -6 45 8 45 4 0 6 -8 3 -18 -2 -10 3 -24 11 -31
13 -11 19 -11 32 0 14 12 16 11 13 -6 -3 -11 -16 -24 -31 -29 -61 -22 -105 57
-58 104 22 22 60 26 78 8z m666 -7 c24 -20 21 -77 -6 -95 -30 -21 -58 -20 -58
2 0 9 -3 27 -6 40 -5 16 -2 22 11 22 12 0 15 -5 10 -22 -6 -19 -5 -21 6 -10
11 10 11 16 1 32 -17 27 3 25 22 -2 9 -12 16 -18 16 -12 0 6 -9 19 -20 29 -18
17 -21 17 -45 1 -28 -18 -34 -6 -9 19 18 18 54 16 78 -4z m-134 -203 c0 -16
-26 -7 -38 12 -7 11 -23 20 -37 20 -33 0 -32 13 3 35 15 10 31 25 36 34 7 12
13 2 22 -39 7 -30 13 -58 14 -62z m-414 75 c41 -33 43 -43 9 -43 -14 0 -28 -6
-31 -14 -3 -8 -13 -12 -22 -9 -13 4 -14 3 -3 -5 14 -10 7 -32 -10 -32 -5 0 -7
12 -3 28 3 15 9 44 11 65 3 20 7 37 10 37 2 0 20 -12 39 -27z m-269 -13 c11
-16 10 -21 -6 -30 -11 -5 -27 -10 -36 -10 -8 0 -27 -7 -41 -17 -36 -23 -127
-22 -189 2 l-50 19 70 13 c39 7 104 19 145 27 99 19 93 19 107 -4z m1093 -15
l115 -22 -40 -18 c-45 -20 -156 -25 -177 -8 -7 6 -29 15 -48 20 -29 8 -35 14
-33 34 3 22 2 23 -11 7 -7 -10 -17 -18 -21 -18 -5 0 0 8 9 19 19 21 29 21 206
-14z m-1041 -29 c17 -20 -5 -31 -24 -12 -8 8 -15 17 -15 20 0 12 28 6 39 -8z
m817 -5 c-10 -11 -25 -17 -33 -14 -14 5 -13 8 3 20 10 7 24 13 32 13 12 0 12
-4 -2 -19z m-852 -10 c17 -19 17 -20 -6 -32 -13 -7 -27 -18 -33 -25 -15 -19
-79 -33 -125 -27 -22 3 -40 8 -40 12 1 6 169 90 181 91 3 0 14 -9 23 -19z
m286 -2 c0 -19 -48 -89 -62 -89 -19 0 -18 43 2 75 24 39 60 48 60 14z m336 -3
c9 -15 21 -22 30 -19 8 3 14 0 14 -7 0 -6 -5 -8 -12 -4 -7 5 -9 2 -6 -7 5 -14
-18 -58 -25 -48 -41 51 -58 82 -53 94 8 23 34 18 52 -9z m376 -32 l73 -38 -45
-7 c-59 -9 -85 -3 -143 35 -49 30 -49 30 -27 48 24 20 32 18 142 -38z m-872
-109 c0 -80 -4 -145 -8 -145 -5 0 -17 10 -28 23 -17 20 -19 35 -16 145 3 122
3 122 28 122 l24 0 0 -145z m650 123 c0 -13 3 -67 6 -122 5 -92 4 -100 -17
-122 -12 -13 -26 -24 -31 -24 -4 0 -8 65 -8 145 l0 145 25 0 c19 0 25 -5 25
-22z m-720 -11 c0 -13 -15 -41 -32 -61 -30 -34 -37 -37 -75 -34 l-42 3 67 57
c37 32 70 58 75 58 4 0 7 -11 7 -23z m825 -34 l67 -58 -44 -3 c-39 -3 -46 0
-75 35 -31 36 -44 83 -24 83 5 0 39 -26 76 -57z m-507 5 c9 2 12 -17 12 -69 0
-71 0 -72 -20 -54 -14 13 -20 31 -20 61 0 31 -5 47 -20 57 -26 18 -14 30 14
15 11 -7 27 -11 34 -10z m-315 -40 c-7 -40 -16 -51 -37 -46 -14 2 -13 8 9 41
14 20 28 37 30 37 3 0 2 -15 -2 -32z m787 -41 c0 -5 -10 -7 -22 -5 -18 2 -24
10 -26 38 l-3 35 25 -30 c14 -16 25 -34 26 -38z m-550 -8 c0 -19 10 -43 25
-61 28 -33 26 -49 -2 -27 -12 9 -11 6 3 -11 16 -19 20 -34 17 -61 l-5 -36 -26
26 c-23 23 -26 35 -29 113 -3 58 -1 88 6 88 6 0 11 -14 11 -31z m280 -13 c0
-38 -4 -48 -30 -66 -24 -17 -30 -18 -30 -6 0 8 9 20 20 26 15 8 20 21 20 50 0
22 5 40 10 40 6 0 10 -20 10 -44z m-2 -95 c1 -31 -3 -42 -23 -55 -15 -10 -25
-26 -25 -39 0 -13 -11 -34 -25 -47 -14 -13 -25 -19 -25 -13 0 5 9 18 20 28 15
14 20 31 20 71 0 45 4 55 28 73 15 11 27 21 28 21 0 0 1 -18 2 -39z m-128 -52
c-12 -21 -31 -22 -37 -2 -2 6 6 13 19 16 13 2 24 5 26 6 1 0 -2 -8 -8 -20z
m-130 -47 c3 -17 19 -45 35 -64 29 -32 30 -35 34 -157 2 -88 0 -122 -8 -117
-6 4 -11 35 -11 70 0 35 -3 90 -6 123 -6 52 -10 62 -39 81 -26 19 -32 29 -33
63 -2 49 20 50 28 1z m253 6 c-8 -45 -20 -66 -43 -78 -16 -9 -20 -8 -20 5 0 9
7 18 15 21 8 4 15 18 15 33 0 26 16 51 32 51 4 0 5 -15 1 -32z m-76 -210 c-4
-67 -12 -127 -17 -132 -7 -7 -10 7 -10 39 0 95 13 215 23 215 7 0 8 -43 4
-122z"/>
<path d="M1407 2053 c-22 -6 -12 -23 14 -23 10 0 19 7 19 15 0 15 -2 16 -33 8z"/>
<path d="M1600 1736 c-14 -8 -28 -12 -32 -10 -13 8 -37 -11 -30 -23 5 -9 22
-4 57 17 49 29 53 42 5 16z"/>
<path d="M1492 1704 c-10 -21 -6 -44 9 -44 4 0 5 7 2 17 -4 11 -3 14 5 9 14
-8 15 3 3 23 -7 11 -11 10 -19 -5z"/>
<path d="M1163 2382 l-1 -57 10 42 c5 24 5 49 1 58 -6 9 -9 -6 -10 -43z"/>
<path d="M1139 2425 c-1 -3 -3 -9 -4 -15 -1 -5 -3 -15 -4 -21 -1 -8 -5 -8 -16
1 -8 7 -21 10 -29 7 -11 -5 -13 -22 -9 -86 l6 -80 -67 -67 c-37 -37 -74 -81
-82 -98 -8 -17 -9 -22 -2 -11 7 11 46 53 87 93 l73 74 -4 84 c-3 58 -1 84 7
84 8 0 10 -30 7 -97 -3 -76 -8 -100 -20 -107 -25 -14 -103 -88 -98 -93 2 -2
19 11 37 29 19 19 46 42 61 51 25 16 27 22 30 97 5 127 23 97 25 -41 1 -66 4
-123 8 -127 3 -3 5 69 5 161 -2 141 -5 188 -11 162z"/>
<path d="M1246 2389 c-2 -8 -14 -43 -25 -78 l-21 -65 30 -45 c16 -25 30 -43
30 -38 0 4 -11 24 -25 45 l-25 38 25 74 c14 40 23 76 20 78 -2 3 -7 -1 -9 -9z"/>
<path d="M1722 2349 c-32 -81 -35 -105 -17 -133 22 -34 28 -33 49 7 16 30 15
35 -3 92 -18 57 -20 59 -29 34z m24 -90 c10 -17 -13 -36 -27 -22 -12 12 -4 33
11 33 5 0 12 -5 16 -11z"/>
<path d="M1246 2305 c-15 -50 -16 -57 -1 -85 19 -37 26 -38 48 -1 15 26 15 32
0 77 -8 27 -19 52 -22 57 -4 4 -15 -17 -25 -48z"/>
<path d="M1161 2224 c0 -31 3 -54 5 -51 9 9 13 107 4 107 -5 0 -9 -25 -9 -56z"/>
<path d="M1996 2139 c29 -31 64 -79 78 -107 26 -51 27 -52 69 -51 l42 2 -39 6
c-35 5 -43 12 -73 63 -31 54 -67 95 -109 128 -10 8 4 -10 32 -41z"/>
<path d="M902 2009 c-12 -18 -21 -20 -95 -15 -69 4 -73 3 -27 -4 95 -14 118
-12 130 11 15 27 8 34 -8 8z"/>
<path d="M1060 1571 c0 -5 18 -25 39 -44 32 -29 47 -36 81 -35 45 0 70 18 70
51 0 20 0 20 -14 2 -8 -11 -12 -23 -10 -27 2 -4 -1 -10 -7 -14 -8 -5 -9 -3 -4
6 6 10 2 12 -16 7 -36 -10 -95 12 -108 39 -10 23 -31 33 -31 15z"/>
<path d="M2325 1409 c-18 -8 -18 -8 4 -6 13 1 26 -4 28 -10 3 -9 -7 -13 -29
-14 l-33 -1 30 -9 c20 -6 32 -5 37 4 20 31 -1 51 -37 36z"/>
<path d="M732 1249 l-2 -37 138 0 c91 0 127 3 109 8 -16 5 -35 6 -43 3 -8 -3
-20 0 -28 6 -7 6 -21 9 -30 5 -11 -4 -16 -1 -16 11 0 13 6 16 26 11 17 -5 23
-3 19 4 -3 5 -17 10 -31 10 -22 0 -28 -8 -25 -35 0 -5 -24 -11 -54 -12 -54 -2
-54 -2 -58 30 -4 32 -4 32 -5 -4z"/>
<path d="M2105 1260 c-4 -7 3 -8 20 -4 21 5 27 4 23 -7 -3 -8 -13 -15 -24 -17
-117 -16 -114 -19 14 -20 117 0 132 1 132 16 0 13 -2 14 -9 4 -13 -21 -98 -5
-104 19 -5 20 -41 26 -52 9z"/>
<path d="M775 1190 l-50 -7 53 -1 c29 -1 52 2 52 8 0 6 -1 9 -2 8 -2 0 -25 -4
-53 -8z"/>
<path d="M2164 1188 c-3 -4 23 -7 58 -7 66 1 62 6 -10 11 -24 2 -46 0 -48 -4z"/>
<path d="M900 1144 c0 -17 74 -125 106 -154 17 -15 12 -6 -13 25 -23 28 -53
70 -67 95 -14 25 -26 40 -26 34z"/>
<path d="M1817 1118 l32 -33 3 -193 c2 -153 0 -192 -10 -192 -7 0 -12 8 -11
18 3 33 -3 47 -10 22 -10 -35 -2 -52 23 -48 21 3 21 6 17 198 -3 193 -3 195
-30 227 -14 17 -30 32 -35 32 -6 1 4 -14 21 -31z"/>
<path d="M2085 1131 c-12 -38 -93 -138 -135 -167 l-41 -29 3 -98 c2 -61 0 -96
-6 -94 -6 2 -9 43 -7 101 l3 98 61 58 c34 32 70 73 80 92 l18 33 -23 -30 c-12
-16 -50 -57 -84 -91 l-61 -60 -5 -103 c-4 -83 -2 -104 9 -108 22 -9 50 24 35
39 -7 7 -12 40 -12 81 l0 69 63 61 c61 59 126 152 114 163 -3 3 -8 -4 -12 -15z"/>
<path d="M1176 1088 c-12 -17 -16 -47 -16 -125 0 -57 4 -103 9 -103 4 0 6 43
3 95 -4 78 -2 99 12 121 22 32 14 44 -8 12z"/>
<path d="M1227 971 c-27 -41 -28 -38 7 -160 14 -51 26 -76 26 -54 0 5 -11 47
-25 92 -24 81 -24 84 -6 110 25 36 33 51 28 51 -2 0 -16 -17 -30 -39z"/>
<path d="M1246 956 c-17 -32 -17 -35 2 -97 11 -35 22 -57 25 -49 37 108 38
116 20 149 -10 17 -20 31 -23 31 -3 0 -14 -15 -24 -34z"/>
<path d="M1706 959 c-17 -30 -17 -33 0 -95 10 -35 21 -64 24 -64 3 0 13 30 23
66 17 65 17 66 -4 95 -11 16 -21 29 -23 29 -1 0 -10 -14 -20 -31z"/>
<path d="M1057 949 c14 -16 23 -41 26 -74 l3 -50 2 55 c1 49 -1 57 -26 74
l-27 19 22 -24z"/>
<path d="M1778 946 c7 -13 3 -41 -14 -95 -23 -73 -30 -110 -19 -99 3 3 12 29
20 59 8 30 18 68 24 86 7 24 6 36 -6 50 -14 17 -14 17 -5 -1z"/>
<path d="M1676 885 c9 -51 36 -140 40 -130 2 6 -7 44 -21 85 -14 41 -22 62
-19 45z"/>
<path d="M1823 855 c0 -33 2 -45 4 -27 2 18 2 45 0 60 -2 15 -4 0 -4 -33z"/>
<path d="M1296 832 c-16 -60 -20 -90 -10 -80 7 8 35 130 31 135 -2 2 -12 -23
-21 -55z"/>
</g>
</svg>
